<?xml version="1.0" encoding="UTF-8" standalone="no"?>
<svg
   xmlns:dc="http://purl.org/dc/elements/1.1/"
   xmlns:cc="http://creativecommons.org/ns#"
   xmlns:rdf="http://www.w3.org/1999/02/22-rdf-syntax-ns#"
   xmlns:svg="http://www.w3.org/2000/svg"
   xmlns="http://www.w3.org/2000/svg"
   xmlns:sodipodi="http://sodipodi.sourceforge.net/DTD/sodipodi-0.dtd"
   xmlns:inkscape="http://www.inkscape.org/namespaces/inkscape"
   width="199.99899"
   height="100.745"
   viewBox="0 0 52.916397 26.655449"
   version="1.1"
   id="svg8"
   inkscape:version="1.0.2 (e86c870879, 2021-01-15)"
   sodipodi:docname="tenis-modelo.svg">
  <defs
     id="defs2">
    <inkscape:path-effect
       effect="bspline"
       id="path-effect943"
       is_visible="true"
       lpeversion="1"
       weight="33.333333"
       steps="2"
       helper_size="0"
       apply_no_weight="true"
       apply_with_weight="true"
       only_selected="false" />
    <inkscape:path-effect
       effect="bspline"
       id="path-effect91"
       is_visible="true"
       lpeversion="1"
       weight="33.333333"
       steps="2"
       helper_size="0"
       apply_no_weight="true"
       apply_with_weight="true"
       only_selected="false" />
    <inkscape:path-effect
       effect="bspline"
       id="path-effect87"
       is_visible="true"
       lpeversion="1"
       weight="33.333333"
       steps="2"
       helper_size="0"
       apply_no_weight="true"
       apply_with_weight="true"
       only_selected="false" />
    <inkscape:path-effect
       effect="bspline"
       id="path-effect83"
       is_visible="true"
       lpeversion="1"
       weight="33.333333"
       steps="2"
       helper_size="0"
       apply_no_weight="true"
       apply_with_weight="true"
       only_selected="false" />
    <inkscape:path-effect
       effect="bspline"
       id="path-effect79"
       is_visible="true"
       lpeversion="1"
       weight="33.333333"
       steps="2"
       helper_size="0"
       apply_no_weight="true"
       apply_with_weight="true"
       only_selected="false" />
  </defs>
  <sodipodi:namedview
     id="base"
     pagecolor="#383838"
     bordercolor="#666666"
     borderopacity="1.0"
     inkscape:pageopacity="0"
     inkscape:pageshadow="2"
     inkscape:zoom="1.4"
     inkscape:cx="-15.593437"
     inkscape:cy="102.12714"
     inkscape:document-units="px"
     inkscape:current-layer="layer2"
     inkscape:document-rotation="0"
     showgrid="false"
     units="px"
     inkscape:window-width="1920"
     inkscape:window-height="1029"
     inkscape:window-x="0"
     inkscape:window-y="27"
     inkscape:window-maximized="1" />
  <metadata
     id="metadata5">
    <rdf:RDF>
      <cc:Work
         rdf:about="">
        <dc:format>image/svg+xml</dc:format>
        <dc:type
           rdf:resource="http://purl.org/dc/dcmitype/StillImage" />
        <dc:title></dc:title>
      </cc:Work>
    </rdf:RDF>
  </metadata>
  <g
     inkscape:groupmode="layer"
     id="layer2"
     inkscape:label="vetor">
    <g
       id="g1022"
       transform="matrix(1.1275474,0,0,1.1275474,232.77909,-110.41474)">
      <path
         style="fill:#8dd35f;fill-opacity:1;stroke:none;stroke-width:0.170147;stroke-linecap:round;stroke-miterlimit:4;stroke-dasharray:none;stroke-opacity:1"
         d="m -197.1387,120.8539 c -0.52797,-0.0402 -0.85237,-0.0951 -1.37185,-0.23174 -2.19467,-0.57784 -5.02898,-2.58289 -5.92361,-4.19046 -0.0997,-0.17928 -0.26943,-0.54598 -0.37703,-0.81487 -0.1869,-0.46712 -0.44002,-1.26465 -0.44002,-1.38643 0,-0.0432 0.0955,-0.0159 0.38106,0.10898 2.18521,0.95453 5.66707,2.27233 7.2911,2.75952 1.22148,0.36644 1.7131,0.43247 2.979,0.40016 1.39081,-0.0354 2.22719,-0.15207 7.21667,-1.00592 5.94162,-1.01676 7.28702,-1.2125 9.56904,-1.39216 0.9148,-0.0721 2.94629,-0.0604 3.79374,0.0215 1.22935,0.11895 1.67133,0.18721 4.62771,0.71467 2.95895,0.52792 4.52728,0.27141 8.19718,-1.34078 0.40762,-0.17906 0.75394,-0.32563 0.76961,-0.32572 0.0156,-7e-5 0.0186,0.32532 0.007,0.72308 -0.061,2.01578 -0.18911,3.0313 -0.51445,4.07906 -0.21815,0.70251 -0.56112,1.43792 -0.7329,1.57149 -0.20934,0.16278 -1.23763,0.219 -4.86789,0.26609 -3.87548,0.0504 -30.02647,0.0876 -30.60396,0.0436 z"
         id="path939" />
      <path
         style="fill:none;stroke:#fafafa;stroke-width:1.21179;stroke-linecap:round;stroke-linejoin:miter;stroke-miterlimit:4;stroke-dasharray:none;stroke-opacity:1"
         d="m -163.3685,102.6315 c -0.46752,0.11132 -0.93524,0.22268 -1.30285,0.45659 -0.36761,0.2339 -0.63487,0.59025 -0.90216,1.00232 -0.26728,0.41206 -0.53454,0.87977 -0.94652,1.26948 -0.41197,0.38971 -0.96877,0.70152 -1.60349,0.93539 -0.63472,0.23386 -1.34742,0.38977 -1.97102,0.46774 -0.62361,0.078 -1.15813,0.078 -1.70379,-0.089 -0.54566,-0.16695 -1.10246,-0.50103 -1.61476,-0.9353 -0.51231,-0.43427 -0.98002,-0.9688 -1.47005,-1.6481 -0.49003,-0.6793 -1.00228,-1.50337 -1.60358,-2.12706 -0.60131,-0.6237 -1.29174,-1.04687 -1.90425,-1.28082 -0.61251,-0.23395 -1.14704,-0.27849 -1.5814,-0.26739 -0.43436,0.0111 -0.76842,0.0779 -3.83095,1.62585 -3.06252,1.54794 -8.85337,4.57699 -11.99375,6.15834 -3.14038,1.58135 -3.63036,1.71498 -4.38759,1.79295 -0.75724,0.078 -1.78175,0.10024 -2.6727,0.22271 -0.89095,0.12248 -1.6482,0.3452 -2.1049,0.63483 -0.4567,0.28963 -0.61261,0.64599 -0.73509,1.18058 -0.12249,0.5346 -0.21157,1.2473 -0.0779,2.11599 0.13371,0.86868 0.49005,1.89319 0.94673,2.65043 0.45668,0.75723 1.01348,1.24721 1.69281,1.73718 0.67934,0.48997 1.48112,0.97996 2.37204,1.39196 0.89091,0.412 1.87087,0.74608 2.83971,0.90193 0.96883,0.15586 1.92652,0.13359 7.85111,0.12246 5.92459,-0.0111 16.8156,-0.0111 22.4046,-0.0496 5.58901,-0.0384 5.87586,-0.11532 6.17642,-0.43821 0.30056,-0.32288 0.61506,-0.89191 0.87255,-1.62183 0.25748,-0.72993 0.45793,-1.62081 0.49137,-3.51396 0.0334,-1.89315 -0.1002,-4.78851 -0.23385,-7.6842"
         id="path77"
         inkscape:original-d="m -163.3685,102.6315 c -0.46745,0.11163 -0.93517,0.22299 -1.40316,0.33409 -0.26701,0.35662 -0.53427,0.71297 -0.80181,1.06908 -0.26701,0.46798 -0.53427,0.93569 -0.80181,1.40316 -0.55655,0.31208 -1.11335,0.62389 -1.67043,0.93545 -0.71246,0.15617 -1.42516,0.31207 -2.13816,0.46772 -0.53428,2.6e-4 -1.0688,2.6e-4 -1.60362,0 -0.55654,-0.33383 -1.11334,-0.66791 -1.67043,-1.00226 -0.46746,-0.53428 -0.93517,-1.06881 -1.40317,-1.60362 -0.512,-0.82382 -1.02426,-1.64788 -1.5368,-2.47224 -0.69018,-0.42292 -1.38061,-0.84609 -2.07134,-1.26954 -0.53427,-0.0443 -1.0688,-0.0888 -1.60361,-0.13363 -0.33383,0.0671 -0.6679,0.13385 -1.00226,0.20045 -5.79058,3.02932 -11.58142,6.05838 -17.37252,9.08717 -0.48974,0.1339 -0.97972,0.26753 -1.46998,0.4009 -1.02429,0.0225 -2.0488,0.0448 -3.0736,0.0668 -0.75702,0.22299 -1.51427,0.44571 -2.27179,0.66817 -0.15565,0.35663 -0.31155,0.71299 -0.46773,1.06908 -0.0888,0.713 -0.17791,1.4257 -0.26726,2.13816 0.35663,1.02482 0.71298,2.04933 1.06907,3.0736 0.55709,0.49027 1.11389,0.98025 1.67044,1.46998 0.80209,0.49027 1.60388,0.98025 2.40542,1.46998 0.98028,0.33436 1.96024,0.66844 2.93997,1.00226 0.958,-0.022 1.91569,-0.0443 2.87315,-0.0668 10.89171,2.6e-4 21.78272,2.6e-4 32.67369,0 0.28712,-0.0766 0.57397,-0.15346 0.86055,-0.23059 0.31478,-0.56879 0.62928,-1.13781 0.94352,-1.70712 0.20072,-0.89065 0.40117,-1.78153 0.60136,-2.67269 -0.13338,-2.89522 -0.26701,-5.79058 -0.40091,-8.68626"
         inkscape:path-effect="#path-effect79" />
      <path
         style="fill:none;stroke:#fafafa;stroke-width:1.21179;stroke-linecap:round;stroke-linejoin:miter;stroke-miterlimit:4;stroke-dasharray:none;stroke-opacity:1"
         d="m -205.79753,113.85682 c 1.15848,0.42329 2.31665,0.84647 3.8312,1.3476 1.51454,0.50112 3.38539,1.0802 4.75515,1.42539 1.36975,0.34519 2.23836,0.45655 5.07811,0.12242 2.83974,-0.33413 7.6505,-1.11365 11.02482,-1.5034 3.37432,-0.38975 5.31198,-0.38975 6.99358,-0.26722 1.68161,0.12252 3.10702,0.36751 4.44337,0.56796 1.33636,0.20045 2.5836,0.35636 4.15649,0.0757 1.57289,-0.28061 3.4715,-0.99762 5.36999,-1.71459"
         id="path81"
         inkscape:original-d="m -205.79753,113.85682 c 1.15843,0.42344 2.3166,0.84662 3.4745,1.26953 1.87119,0.57936 3.74204,1.15843 5.61266,1.73725 0.86891,0.11163 1.73752,0.22299 2.60588,0.33409 4.81121,-0.77929 9.62197,-1.55881 14.43255,-2.33861 1.93801,2.7e-4 3.87567,2.7e-4 5.81311,0 1.42573,0.24527 2.85114,0.49026 4.27632,0.73499 1.24754,0.15618 2.49478,0.31208 3.74177,0.46773 1.89894,-0.71678 3.79755,-1.43378 5.69592,-2.15107"
         inkscape:path-effect="#path-effect83" />
      <path
         style="fill:none;stroke:#fafafa;stroke-width:1.21179;stroke-linecap:round;stroke-linejoin:miter;stroke-miterlimit:4;stroke-dasharray:none;stroke-opacity:1"
         d="m -196.47777,108.57181 c 0.40181,0.57515 0.80341,1.14999 1.18142,1.59093 0.37802,0.44095 0.73236,0.74805 1.12217,0.96847 0.38981,0.22041 0.81503,0.35428 1.3229,0.38571 0.50786,0.0314 1.09844,-0.0394 2.98435,-0.87023 1.88591,-0.83078 5.06715,-2.4214 8.24834,-4.012"
         id="path85"
         inkscape:original-d="m -196.47777,108.57181 c 0.40186,0.57511 0.80346,1.14995 1.20479,1.72452 0.35463,0.30738 0.70898,0.61448 1.06306,0.92132 0.4255,0.13413 0.85072,0.268 1.27567,0.4016 0.59087,-0.0706 1.18144,-0.14148 1.77177,-0.21261 3.18162,-1.59042 6.36286,-3.18104 9.54389,-4.77195"
         inkscape:path-effect="#path-effect87" />
      <path
         style="fill:none;stroke:#fafafa;stroke-width:1.21179;stroke-linecap:round;stroke-linejoin:miter;stroke-miterlimit:4;stroke-dasharray:none;stroke-opacity:1"
         d="m -178.62792,100.61027 c 0.69323,-0.693233 1.38646,-1.386463 2.07969,-2.079694"
         id="path89"
         inkscape:original-d="m -178.62792,100.61027 c 0.6935,-0.692964 1.38673,-1.386194 2.07969,-2.079694"
         inkscape:path-effect="#path-effect91" />
      <circle
         style="fill:#fafafa;fill-opacity:1;stroke:none;stroke-width:2.46106;stroke-linecap:round;stroke-miterlimit:4;stroke-dasharray:none;stroke-opacity:1"
         id="path926"
         cx="-160.99777"
         cy="104.71949"
         r="1.163458" />
      <circle
         style="fill:#c6e9af;fill-opacity:1;stroke:none;stroke-width:0.588323;stroke-linecap:round;stroke-miterlimit:4;stroke-dasharray:none;stroke-opacity:1"
         id="circle962"
         cx="-183.77325"
         cy="118.02712"
         r="0.27812767" />
      <circle
         style="fill:#c6e9af;fill-opacity:1;stroke:none;stroke-width:0.588323;stroke-linecap:round;stroke-miterlimit:4;stroke-dasharray:none;stroke-opacity:1"
         id="circle972"
         cx="-182.44499"
         cy="119.44846"
         r="0.27812767" />
      <circle
         style="fill:#c6e9af;fill-opacity:1;stroke:none;stroke-width:0.588323;stroke-linecap:round;stroke-miterlimit:4;stroke-dasharray:none;stroke-opacity:1"
         id="circle974"
         cx="-178.32314"
         cy="118.10639"
         r="0.27812767" />
      <circle
         style="fill:#c6e9af;fill-opacity:1;stroke:none;stroke-width:0.588323;stroke-linecap:round;stroke-miterlimit:4;stroke-dasharray:none;stroke-opacity:1"
         id="circle976"
         cx="-179.44519"
         cy="119.25791"
         r="0.27812767" />
      <circle
         style="fill:#c6e9af;fill-opacity:1;stroke:none;stroke-width:0.588323;stroke-linecap:round;stroke-miterlimit:4;stroke-dasharray:none;stroke-opacity:1"
         id="circle978"
         cx="-179.66048"
         cy="117.08512"
         r="0.27812767" />
      <circle
         style="fill:#c6e9af;fill-opacity:1;stroke:none;stroke-width:0.588323;stroke-linecap:round;stroke-miterlimit:4;stroke-dasharray:none;stroke-opacity:1"
         id="circle980"
         cx="-175.12317"
         cy="117.863"
         r="0.27812767" />
      <circle
         style="fill:#c6e9af;fill-opacity:1;stroke:none;stroke-width:0.588323;stroke-linecap:round;stroke-miterlimit:4;stroke-dasharray:none;stroke-opacity:1"
         id="circle982"
         cx="-181.26698"
         cy="118.04572"
         r="0.27812767" />
      <circle
         style="fill:#c6e9af;fill-opacity:1;stroke:none;stroke-width:0.588323;stroke-linecap:round;stroke-miterlimit:4;stroke-dasharray:none;stroke-opacity:1"
         id="circle984"
         cx="-176.54671"
         cy="119.16006"
         r="0.27812767" />
    </g>
  </g>
</svg>
